<?xml version="1.0" encoding="utf-8"?>
<!-- Generator: Adobe Illustrator 27.4.1, SVG Export Plug-In . SVG Version: 6.00 Build 0)  -->
<svg version="1.1" id="Capa_1" xmlns="http://www.w3.org/2000/svg" xmlns:xlink="http://www.w3.org/1999/xlink" x="0px" y="0px"
	 viewBox="0 0 283.46 283.46" style="enable-background:new 0 0 283.46 283.46;" xml:space="preserve">
<style type="text/css">
	.st0{fill:#006B7F;}
	.st1{fill:#FFFFFF;}
</style>
<path class="st0" d="M283.46,132.35c0,3.85,0,7.7,0,11.55c-0.1,0.82-0.21,1.64-0.31,2.46c-0.6,5.31-0.92,10.67-1.85,15.92
	c-2.75,15.57-8.33,30.17-16.17,43.92c-12.69,22.26-30.25,39.65-52.82,52.07c-20.22,11.13-41.77,17.37-64.97,17.75
	c-11.79,0.19-23.43-0.84-34.92-3.51c-11.47-2.66-22.4-6.76-32.81-12.19c-1.78-0.93-3.25-1.26-5.26-0.61
	c-22.01,7.1-44.06,14.11-66.1,21.11c-2.73,0.87-5.51,1.56-8.26,2.33c0-0.1,0-0.21,0-0.31c0.21-0.39,0.47-0.77,0.61-1.19
	c2.42-7.12,4.83-14.25,7.24-21.38c5.61-16.61,11.22-33.22,16.79-49.84c0.21-0.62,0.08-1.52-0.22-2.11
	c-1.36-2.63-2.93-5.16-4.29-7.79C11.8,184.46,6.97,167.4,5.59,149.37c-0.91-11.92-0.45-23.77,1.74-35.54
	c2.21-11.9,6.02-23.27,11.25-34.21c7.49-15.66,17.39-29.58,30.12-41.5c12.91-12.09,27.76-21.2,44.17-27.84
	c14.83-6,30.26-9.26,46.28-9.85c10.26-0.38,20.44,0.33,30.51,2.17c14.25,2.61,27.7,7.56,40.48,14.32c15,7.95,28.17,18.2,39.28,30.98
	c11.48,13.2,20.03,28.12,26.02,44.49c3.98,10.88,6.54,22.07,7.44,33.62C283.03,128.13,283.26,130.24,283.46,132.35z M36.06,247.93
	c0.49-0.09,0.68-0.1,0.87-0.16c13.99-4.42,27.98-8.82,41.96-13.28c1.25-0.4,2.21-0.28,3.34,0.44
	c15.92,10.13,33.27,16.09,52.16,17.66c9.56,0.79,19.06,0.49,28.51-1.06c11.8-1.93,23-5.71,33.67-11.07
	c11.17-5.62,21.27-12.7,30.08-21.53c10.91-10.92,19.08-23.66,24.97-37.83c4.66-11.2,7.46-22.86,8.25-34.98
	c0.62-9.42,0.19-18.77-1.53-28.08c-1.72-9.33-4.61-18.28-8.56-26.91c-7.01-15.31-16.66-28.74-29.61-39.63
	c-17.28-14.53-37.11-23.66-59.61-26.96c-10.6-1.55-21.22-1.58-31.8-0.15c-10.3,1.39-20.23,4.19-29.79,8.32
	c-13.2,5.7-25.14,13.27-35.47,23.24c-14.07,13.58-23.73,29.86-29.82,48.29c-2.8,8.48-4.33,17.21-4.99,26.08
	c-0.53,7.12-0.25,14.22,0.53,21.32c0.93,8.45,2.84,16.67,5.69,24.67c3.6,10.1,8.68,19.43,14.88,28.18c0.36,0.5,0.58,1.38,0.4,1.93
	c-1.3,4.05-2.72,8.06-4.1,12.08C42.78,228.23,39.47,237.95,36.06,247.93z"/>
<path class="st1" d="M283.46,132.35c-0.2-2.11-0.43-4.22-0.6-6.33c-0.9-11.55-3.46-22.74-7.44-33.62
	c-5.99-16.37-14.54-31.28-26.02-44.49c-11.11-12.78-24.27-23.03-39.28-30.98c-12.78-6.77-26.23-11.71-40.48-14.32
	c-10.07-1.85-20.25-2.55-30.51-2.17c-16.02,0.59-31.45,3.85-46.28,9.85c-16.41,6.64-31.25,15.75-44.17,27.84
	c-12.72,11.91-22.62,25.84-30.12,41.5c-5.23,10.94-9.04,22.31-11.25,34.21c-2.18,11.76-2.65,23.62-1.74,35.54
	c1.38,18.03,6.21,35.09,14.54,51.17c1.36,2.63,2.92,5.16,4.29,7.79c0.31,0.6,0.43,1.49,0.22,2.11
	c-5.56,16.62-11.18,33.23-16.79,49.84c-2.41,7.13-4.81,14.25-7.24,21.38c-0.14,0.42-0.41,0.79-0.61,1.19C0,188.57,0,94.3,0,0
	c94.49,0,188.98,0,283.46,0C283.46,44.12,283.46,88.23,283.46,132.35z"/>
<path class="st1" d="M0,283.15c2.76-0.77,5.54-1.47,8.26-2.33c22.05-7,44.09-14.01,66.1-21.11c2.01-0.65,3.48-0.32,5.26,0.61
	c10.41,5.43,21.34,9.53,32.81,12.19c11.49,2.67,23.13,3.7,34.92,3.51c23.2-0.38,44.75-6.62,64.97-17.75
	c22.57-12.42,40.13-29.82,52.82-52.07c7.84-13.75,13.42-28.34,16.17-43.92c0.93-5.25,1.25-10.61,1.85-15.92
	c0.09-0.82,0.2-1.64,0.31-2.46c0,46.52,0,93.04,0,139.56c-94.02,0-188.03,0-282.05-0.01C0.94,283.45,0.47,283.26,0,283.15z"/>
<path class="st0" d="M74.78,106.72c-0.4-13.11,4.59-23.87,14.37-32.54c3.27-2.9,7.13-3.76,11.41-3.25c1.82,0.22,3.65,0.42,5.48,0.47
	c2.44,0.07,4.3,0.96,5.23,3.27c2.2,5.48,4.42,10.97,6.5,16.5c1.7,4.51,3.12,9.14,4.87,13.63c1.15,2.94,0.38,5.45-1.31,7.75
	c-1.69,2.3-3.66,4.4-5.49,6.61c-1.5,1.8-2.98,3.62-4.44,5.45c-0.95,1.18-0.92,2.42-0.28,3.79c4.92,10.55,12.03,19.45,20.71,27.16
	c8.14,7.24,17.5,12.63,27.18,17.55c2.53,1.28,4.81,1.03,6.72-1c3.25-3.46,6.36-7.05,9.58-10.53c1.34-1.45,2.77-2.83,4.24-4.16
	c1.29-1.17,2.73-1.59,4.46-0.74c5.95,2.91,11.99,5.65,17.9,8.67c4.32,2.21,8.47,4.75,12.72,7.12c1.54,0.86,2.12,2.12,2.1,3.85
	c-0.08,5.51-1.45,10.72-3.88,15.6c-2.32,4.67-6.45,7.55-11,9.87c-6.84,3.49-14,6.17-21.79,5.42c-4.58-0.44-9.16-1.64-13.54-3.1
	c-10.43-3.47-20.51-7.82-30.05-13.29c-9.84-5.65-18.38-12.87-25.95-21.26c-9.84-10.92-18.81-22.49-26.45-35.02
	c-4.47-7.33-7.85-15.14-8.9-23.76C74.97,109.4,74.9,108.05,74.78,106.72z"/>
</svg>
