<?xml version="1.0" encoding="utf-8"?>
<!-- Generator: Adobe Illustrator 27.4.1, SVG Export Plug-In . SVG Version: 6.00 Build 0)  -->
<svg version="1.1" id="Capa_1" xmlns="http://www.w3.org/2000/svg" xmlns:xlink="http://www.w3.org/1999/xlink" x="0px" y="0px"
	 viewBox="0 0 283.46 283.46" style="enable-background:new 0 0 283.46 283.46;" xml:space="preserve">
<style type="text/css">
	.st0{fill:#006B7F;}
	.st1{fill:#FFFFFF;}
</style>
<path class="st0" d="M141.98,7.12c21.89,0,43.78-0.15,65.66,0.03c38.03,0.32,68.26,29.99,68.59,67.98
	c0.39,44.56,0.37,89.13-0.01,133.69c-0.32,37.13-30.46,67.15-67.65,67.44c-44.56,0.35-89.13,0.38-133.69-0.02
	C37.2,275.91,7.37,245.57,7.2,207.87c-0.2-44.09-0.19-88.18,0-132.28C7.35,37.58,37.75,7.38,75.84,7.14
	C97.89,7.01,119.93,7.12,141.98,7.12z M26.41,141.74c0,21.57,0,43.14,0,64.71c0,0.47,0,0.94,0.01,1.42
	c0.29,27.32,22.1,49.11,49.44,49.16c43.92,0.08,87.85,0.09,131.77,0.01c27.31-0.05,49.33-21.92,49.4-49.19
	c0.12-44.08,0.11-88.16,0-132.25c-0.07-27.26-22.08-49.12-49.41-49.17c-43.77-0.08-87.53-0.08-131.3,0.02
	C48.28,26.5,26.56,48.17,26.44,76.09C26.34,97.97,26.42,119.86,26.41,141.74z"/>
<path class="st0" d="M141.65,73.26c38.1-0.03,68.8,30.78,68.63,68.86c-0.17,37.43-30.65,67.97-67.98,68.09
	c-38.45,0.13-69.31-30.64-69.1-68.86C73.42,103.65,103.93,73.29,141.65,73.26z M190.85,141.72c-0.05-27.21-22.1-49.13-49.37-49.11
	c-26.83,0.02-48.85,22.17-48.86,49.16c-0.01,27.14,22.13,49.15,49.38,49.1C168.85,190.81,190.9,168.63,190.85,141.72z"/>
<path class="st0" d="M233.58,66.39c0,9.16-7.28,16.53-16.39,16.57c-9.04,0.05-16.61-7.39-16.68-16.39
	c-0.07-9.36,7.32-16.73,16.74-16.69C226.52,49.93,233.58,57.06,233.58,66.39z"/>
<path class="st1" d="M190.85,141.72c0.05,26.92-22,49.1-48.86,49.15c-27.25,0.05-49.38-21.96-49.38-49.1
	c0.01-26.98,22.02-49.14,48.86-49.16C168.75,92.59,190.8,114.51,190.85,141.72z"/>
</svg>
