<?xml version="1.0" encoding="utf-8"?>
<!-- Generator: Adobe Illustrator 27.4.1, SVG Export Plug-In . SVG Version: 6.00 Build 0)  -->
<svg version="1.1" id="Capa_1" xmlns="http://www.w3.org/2000/svg" xmlns:xlink="http://www.w3.org/1999/xlink" x="0px" y="0px"
	 viewBox="0 0 283.46 283.46" style="enable-background:new 0 0 283.46 283.46;" xml:space="preserve">
<style type="text/css">
	.st0{fill:#006B7F;}
	.st1{fill:#FFFFFF;}
</style>
<path class="st0" d="M-277.34-124.56c269.27,0,538.54,0,807.87,0c0,179.49,0,358.99,0,538.58c-269.25,0-538.56,0-807.87,0
	C-277.34,234.53-277.34,54.99-277.34-124.56z M181.84,129.57c14.19,0,28.05,0,41.93,0c0.08,0.63,0.18,0.96,0.14,1.28
	c-1.64,12.85-3.45,25.68-4.84,38.55c-0.35,3.26-1.56,3.76-4.36,3.72c-9.76-0.15-19.52-0.06-29.29-0.06c-1.19,0-2.37,0-3.53,0
	c0,37.32,0,74.14,0,111.27c1.52,0,2.84,0,4.16,0c21.99,0,43.99,0.01,65.98-0.01c11.16-0.01,17.76-6.69,17.77-18
	c0.01-83.86,0.01-167.72,0-251.58c0-11.22-6.97-18.25-18.1-18.25C169.11-3.53,86.53-3.53,3.94-3.53c-0.56,0-1.12-0.01-1.68,0
	c-9.45,0.3-16.46,7.56-16.46,17.14c-0.01,84.54-0.01,169.09,0,253.63c0,10.12,6.93,17.07,16.97,17.07
	c43.65,0.01,87.3,0.01,130.95,0.01c1.18,0,2.37,0,3.55,0c0-37.34,0-74.16,0-111.37c-12.35,0-24.51,0-36.59,0c0-14.67,0-28.94,0-43.5
	c12.32,0,24.39,0,36.8,0c0-1.4,0-2.51,0-3.61c0-9.22,0.01-18.43,0-27.65c-0.01-7.89,0.76-15.64,3.28-23.17
	c6.4-19.13,19.72-29.97,39.05-33.66c11.72-2.24,23.48-0.87,35.23-0.37c3.44,0.15,6.88,0.55,10.29,0.83c0,13.15,0,25.95,0,39
	c-1.34,0-2.44,0-3.55,0c-7.41,0.03-14.82-0.12-22.21,0.13c-10.9,0.37-17.07,5.57-17.58,15.71
	C181.42,107.42,181.84,118.23,181.84,129.57z"/>
<path class="st1" d="M460.03,129.57c0-11.34-0.46-22.15,0.13-32.91c0.56-10.15,7.33-15.34,19.3-15.71
	c8.12-0.25,16.26-0.1,24.39-0.13c1.21,0,2.42,0,3.89,0c0-13.05,0-25.85,0-39c-3.75-0.28-7.52-0.68-11.3-0.83
	c-12.9-0.5-25.81-1.86-38.67,0.37c-21.22,3.69-35.84,14.53-42.87,33.66c-2.76,7.53-3.61,15.29-3.6,23.17c0.01,9.22,0,18.43,0,27.65
	c0,1.11,0,2.21,0,3.61c-13.62,0-26.86,0-40.39,0c0,14.56,0,28.83,0,43.5c13.27,0,26.61,0,40.17,0c0,37.22,0,74.03,0,111.37
	c-1.3,0-2.6,0-3.89,0c-47.92,0-95.84,0-143.76-0.01c-11.02,0-18.63-6.95-18.63-17.07c-0.01-84.54-0.01-169.09,0-253.63
	c0-9.58,7.7-16.84,18.07-17.14c0.62-0.02,1.23,0,1.85,0c90.67,0,181.33,0,272,0.01c12.22,0,19.87,7.03,19.88,18.25
	c0.01,83.86,0.01,167.72,0,251.58c0,11.31-7.25,17.99-19.5,18c-24.14,0.01-48.29,0.01-72.43,0.01c-1.45,0-2.9,0-4.57,0
	c0-37.13,0-73.94,0-111.27c1.28,0,2.58,0,3.88,0c10.72,0,21.44-0.09,32.15,0.06c3.08,0.04,4.4-0.46,4.79-3.72
	c1.53-12.87,3.51-25.7,5.31-38.55c0.04-0.32-0.08-0.65-0.16-1.28C490.82,129.57,475.6,129.57,460.03,129.57z"/>
</svg>
